<?xml version="1.0" encoding="UTF-8" standalone="no"?>
<svg
   xmlns:dc="http://purl.org/dc/elements/1.1/"
   xmlns:cc="http://creativecommons.org/ns#"
   xmlns:rdf="http://www.w3.org/1999/02/22-rdf-syntax-ns#"
   xmlns:svg="http://www.w3.org/2000/svg"
   xmlns="http://www.w3.org/2000/svg"
   xmlns:sodipodi="http://sodipodi.sourceforge.net/DTD/sodipodi-0.dtd"
   xmlns:inkscape="http://www.inkscape.org/namespaces/inkscape"
   version="1.1"
   id="Layer_1"
   x="0px"
   y="0px"
   viewBox="0 0 512 512"
   style="enable-background:new 0 0 512 512;"
   xml:space="preserve"
   sodipodi:docname="open-lock-white.svg"
   inkscape:version="1.0.2-2 (e86c870879, 2021-01-15)"><metadata
   id="metadata106"><rdf:RDF><cc:Work
       rdf:about=""><dc:format>image/svg+xml</dc:format><dc:type
         rdf:resource="http://purl.org/dc/dcmitype/StillImage" /><dc:title></dc:title></cc:Work></rdf:RDF></metadata><defs
   id="defs104" /><sodipodi:namedview
   pagecolor="#ffffff"
   bordercolor="#666666"
   borderopacity="1"
   objecttolerance="10"
   gridtolerance="10"
   guidetolerance="10"
   inkscape:pageopacity="0"
   inkscape:pageshadow="2"
   inkscape:window-width="958"
   inkscape:window-height="991"
   id="namedview102"
   showgrid="false"
   inkscape:zoom="1.6210938"
   inkscape:cx="256"
   inkscape:cy="254.76627"
   inkscape:window-x="-8"
   inkscape:window-y="0"
   inkscape:window-maximized="0"
   inkscape:current-layer="Layer_1" />
<g
   id="g63">
	<g
   id="g61">
		<path
   d="M409.6,204.8h-256V128c0-56.559,45.841-102.4,102.4-102.4S358.4,71.441,358.4,128H384C384,57.421,326.579,0,256,0    S128,57.421,128,128v76.8h-25.6c-14.14,0-25.6,11.46-25.6,25.6v256c0,14.14,11.46,25.6,25.6,25.6h307.2    c14.14,0,25.6-11.46,25.6-25.6v-256C435.2,216.26,423.74,204.8,409.6,204.8z M409.6,486.4H102.4v-256h307.2V486.4z"
   id="path59" />
	</g>
</g>
<g
   id="g69">
	<g
   id="g67">
		<path
   d="M256,307.2c-21.171,0-38.4,17.229-38.4,38.4c0,16.666,10.735,30.737,25.6,36.045V422.4h25.6v-40.755    c14.865-5.299,25.6-19.379,25.6-36.045C294.4,324.429,277.171,307.2,256,307.2z M256,358.4c-7.066,0-12.8-5.734-12.8-12.8    c0-7.066,5.734-12.8,12.8-12.8c7.066,0,12.8,5.734,12.8,12.8C268.8,352.666,263.066,358.4,256,358.4z"
   id="path65" />
	</g>
</g>
<g
   id="g71">
</g>
<g
   id="g73">
</g>
<g
   id="g75">
</g>
<g
   id="g77">
</g>
<g
   id="g79">
</g>
<g
   id="g81">
</g>
<g
   id="g83">
</g>
<g
   id="g85">
</g>
<g
   id="g87">
</g>
<g
   id="g89">
</g>
<g
   id="g91">
</g>
<g
   id="g93">
</g>
<g
   id="g95">
</g>
<g
   id="g97">
</g>
<g
   id="g99">
</g>
<path
   style="fill:#ffffff;stroke-width:0.616867"
   d="m 243.35157,401.73494 -0.003,-20.20241 -4.77808,-2.44421 c -9.28435,-4.7494 -16.99366,-14.46534 -19.57756,-24.67334 -1.18487,-4.68102 -1.17768,-12.47029 0.0162,-17.53499 1.19313,-5.06152 5.04728,-12.45282 8.62528,-16.54112 3.5806,-4.09128 10.81102,-8.93554 15.82688,-10.60376 11.58632,-3.85347 23.60638,-2.29557 33.53746,4.34674 5.62114,3.75965 9.42816,8.0324 12.61834,14.16199 7.74351,14.87833 5.12025,31.81957 -6.77453,43.7505 -3.29009,3.30009 -6.02259,5.35923 -9.41375,7.09398 l -4.77808,2.44421 -0.003,20.20241 -0.003,20.20241 H 256 243.35422 Z M 261.4174,357.569 c 2.80026,-1.17229 6.41831,-5.41363 7.24868,-8.49741 1.42102,-5.27725 -0.79643,-11.10622 -5.47626,-14.39533 C 260.80394,332.9994 260.03984,332.8 256,332.8 c -4.03984,0 -4.80394,0.1994 -7.18982,1.87626 -4.67983,3.28911 -6.89728,9.11808 -5.47626,14.39533 0.809,3.00442 4.40903,7.2917 7.11427,8.47242 2.42848,1.05991 8.46425,1.07367 10.96921,0.025 z"
   id="path931" /><path
   style="fill:#ffffff;stroke-width:0.616867"
   d="m 98.698795,511.31346 c -5.254661,-0.76111 -10.61542,-3.59531 -14.430733,-7.62944 -3.985508,-4.21408 -6.069924,-8.65738 -6.838365,-14.57714 -0.797486,-6.14351 -0.797486,-255.27025 0,-261.41376 0.768441,-5.91976 2.852857,-10.36306 6.838365,-14.57714 3.959167,-4.18624 9.176265,-6.84902 15.047601,-7.68023 2.374937,-0.33622 9.771877,-0.61681 16.437637,-0.62353 l 12.11956,-0.0122 0.29305,-43.95181 c 0.31956,-47.93033 0.38765,-48.97979 4.16186,-64.152333 6.2745,-25.22384 21.32341,-49.261953 41.31334,-65.991158 19.02581,-15.922347 40.5172,-25.5634014 64.96666,-29.1441004 8.79817,-1.28851927 25.98629,-1.28851927 34.78446,0 23.13138,3.3876618 44.0476,12.3858104 61.93223,26.6432094 22.04301,17.572413 38.03538,42.428239 44.56306,69.261252 2.1314,8.76145 3.49561,18.4822 3.49561,24.90808 v 5.31843 H 371.17807 358.973 l -0.74242,-8.1735 c -0.40834,-4.49542 -1.18646,-10.25542 -1.72916,-12.8 C 349.82077,75.394474 328.72051,48.711109 299.92933,35.177067 261.99152,17.34342 217.4112,24.137683 186.43289,52.47449 c -18.19136,16.640199 -29.61723,39.29882 -32.49807,64.44689 -0.37085,3.23724 -0.63523,22.58466 -0.6382,46.70272 l -0.005,41.1759 127.53735,0.0122 c 80.86767,0.008 129.11746,0.23592 131.85542,0.62353 5.87134,0.83121 11.08843,3.494 15.0476,7.68023 3.9855,4.21409 6.06992,8.65738 6.83836,14.57714 0.79749,6.14351 0.79749,255.27025 0,261.41377 -0.76844,5.91976 -2.85286,10.36305 -6.83836,14.57714 -3.95917,4.18623 -9.17626,6.84901 -15.0476,7.68022 -5.42643,0.76823 -308.66975,0.71917 -313.985545,-0.0508 z M 409.90843,358.4 V 230.09157 H 256 102.09157 V 358.4 486.70843 H 256 409.90843 Z"
   id="path933" /></svg>
