<?xml version="1.0" encoding="UTF-8" standalone="no"?>
<svg
   xmlns:dc="http://purl.org/dc/elements/1.1/"
   xmlns:cc="http://creativecommons.org/ns#"
   xmlns:rdf="http://www.w3.org/1999/02/22-rdf-syntax-ns#"
   xmlns:svg="http://www.w3.org/2000/svg"
   xmlns="http://www.w3.org/2000/svg"
   xmlns:sodipodi="http://sodipodi.sourceforge.net/DTD/sodipodi-0.dtd"
   xmlns:inkscape="http://www.inkscape.org/namespaces/inkscape"
   version="1.1"
   id="Layer_1"
   x="0px"
   y="0px"
   viewBox="0 0 512 512"
   style="enable-background:new 0 0 512 512;"
   xml:space="preserve"
   sodipodi:docname="padlock-lock-white.svg"
   inkscape:version="1.0.2-2 (e86c870879, 2021-01-15)"><metadata
   id="metadata106"><rdf:RDF><cc:Work
       rdf:about=""><dc:format>image/svg+xml</dc:format><dc:type
         rdf:resource="http://purl.org/dc/dcmitype/StillImage" /><dc:title></dc:title></cc:Work></rdf:RDF></metadata><defs
   id="defs104" /><sodipodi:namedview
   pagecolor="#ffffff"
   bordercolor="#666666"
   borderopacity="1"
   objecttolerance="10"
   gridtolerance="10"
   guidetolerance="10"
   inkscape:pageopacity="0"
   inkscape:pageshadow="2"
   inkscape:window-width="1920"
   inkscape:window-height="1001"
   id="namedview102"
   showgrid="false"
   inkscape:zoom="1.6210938"
   inkscape:cx="256"
   inkscape:cy="254.76627"
   inkscape:window-x="-9"
   inkscape:window-y="-9"
   inkscape:window-maximized="1"
   inkscape:current-layer="Layer_1" />
<g
   id="g63">
	<g
   id="g61">
		<path
   d="M256,323.918c-17.313,0-31.347,14.034-31.347,31.347c0,11.6,6.307,21.722,15.673,27.143v46h31.347v-46    c9.366-5.421,15.673-15.542,15.673-27.143C287.347,337.952,273.313,323.918,256,323.918z"
   id="path59" />
	</g>
</g>
<g
   id="g69">
	<g
   id="g67">
		<path
   d="M397.061,229.878v-88.816C397.061,63.28,333.781,0,256,0S114.939,63.28,114.939,141.061v88.816H83.592V512h344.816    V229.878H397.061z M146.286,141.061c0-60.496,49.218-109.714,109.714-109.714s109.714,49.218,109.714,109.714v88.816h-31.347    v-88.816c0-43.212-35.156-78.367-78.367-78.367c-43.212,0-78.367,35.156-78.367,78.367v88.816h-31.347V141.061z M303.02,141.061    v88.816H208.98v-88.816c0-25.927,21.093-47.02,47.02-47.02S303.02,115.134,303.02,141.061z M397.061,480.653H114.939V261.224    h282.122V480.653z"
   id="path65" />
	</g>
</g>
<g
   id="g71">
</g>
<g
   id="g73">
</g>
<g
   id="g75">
</g>
<g
   id="g77">
</g>
<g
   id="g79">
</g>
<g
   id="g81">
</g>
<g
   id="g83">
</g>
<g
   id="g85">
</g>
<g
   id="g87">
</g>
<g
   id="g89">
</g>
<g
   id="g91">
</g>
<g
   id="g93">
</g>
<g
   id="g95">
</g>
<g
   id="g97">
</g>
<g
   id="g99">
</g>
<path
   style="fill:#ffffff;stroke-width:0.616867"
   d="m 240.57831,404.97349 c 0,-12.87289 -0.24028,-23.13253 -0.54177,-23.13253 -0.29798,0 -2.4697,-1.78496 -4.82604,-3.96657 -6.73089,-6.23177 -10.05387,-13.68783 -10.05387,-22.55873 0,-17.02616 13.8172,-30.84337 30.84337,-30.84337 23.08644,0 37.90668,24.38026 27.41502,45.09949 -1.67678,3.31136 -6.66215,8.95244 -9.80125,11.0904 l -2.18365,1.48722 -0.004,22.97831 -0.004,22.97831 H 256 240.57831 Z"
   id="path108" /><path
   style="fill:#ffffff;stroke-width:0.616867"
   d="M 83.893976,371.04578 V 230.09157 h 15.73012 15.730124 v -48.5821 c 0,-52.52765 0.22051,-57.1569 3.39184,-71.20571 4.34027,-19.22714 12.99766,-37.842448 25.16921,-54.119409 5.70618,-7.630858 19.46023,-21.394923 27.0124,-27.03207 C 194.18413,11.793 220.45718,2.0772619 247.82651,0.71519682 278.07835,-0.79032033 305.08152,6.1216497 330.5887,21.899744 c 16.81604,10.401979 33.40582,26.995738 44.71122,44.721943 7.55264,11.842085 14.68229,29.188515 17.95402,43.682073 3.17133,14.04881 3.39184,18.67806 3.39184,71.20571 v 48.5821 h 15.73012 15.73012 V 371.04578 512 H 256 83.893976 Z m 313.368674,0 V 260.93494 H 256 114.73735 V 371.04578 481.15663 H 256 397.26265 Z M 177.65783,186.69199 c 0,-46.46318 0.39324,-55.63048 2.78046,-64.81838 7.59198,-29.219931 31.43107,-51.620542 61.20419,-57.511058 7.32923,-1.450065 21.38581,-1.450065 28.71504,0 29.82619,5.901015 53.59786,28.273343 61.23314,57.628588 2.35595,9.0579 2.75151,18.35923 2.75151,64.70085 v 43.39958 h 15.75339 15.7534 l -0.1875,-51.66265 c -0.18566,-51.15363 -0.20145,-51.72878 -1.60301,-58.37329 -9.76737,-46.305182 -45.51325,-80.616506 -91.40451,-87.736259 -8.5847,-1.331865 -24.72318,-1.331865 -33.30788,0 -35.83692,5.559882 -66.72655,28.42601 -82.36083,60.967806 -3.95576,8.233683 -7.09241,17.517883 -9.04368,26.768453 -1.40156,6.64451 -1.41735,7.21966 -1.60301,58.37329 l -0.1875,51.66265 h 15.7534 15.75339 z m 125.67981,-4.8703 c -0.24523,-54.51222 0.007,-51.5121 -5.21806,-62.1494 -2.45794,-5.00426 -3.73947,-6.72011 -8.77367,-11.74707 -6.49933,-6.48999 -11.84448,-9.741145 -20.39169,-12.403163 -6.69378,-2.084771 -19.21466,-2.084771 -25.90844,0 -8.54721,2.662018 -13.89236,5.913173 -20.39169,12.403163 -5.0342,5.02696 -6.31573,6.74281 -8.77367,11.74707 -5.22472,10.6373 -4.97283,7.63718 -5.21806,62.1494 l -0.21715,48.26988 H 256 303.55479 Z"
   id="path110" /></svg>
